<svg width="48" height="48" viewBox="0 0 48 48" fill="none" xmlns="http://www.w3.org/2000/svg">
<g clip-path="url(#clip0)">
<path d="M47.953 14.1121C47.8406 11.5617 47.4282 9.80832 46.8373 8.28897C46.2278 6.67622 45.2901 5.23235 44.0617 4.03204C42.8613 2.81305 41.4079 1.86584 39.8139 1.26587C38.2858 0.675059 36.5414 0.262625 33.9911 0.150176C31.4216 0.0282036 30.606 0 24.0889 0C17.5721 0 16.7564 0.0282036 14.1964 0.140652C11.646 0.253102 9.89261 0.665902 8.37364 1.25635C6.76053 1.86584 5.31665 2.80353 4.11635 4.03204C2.89736 5.23235 1.95051 6.68575 1.35018 8.27981C0.759363 9.80832 0.34693 11.5522 0.234481 14.1026C0.112509 16.6721 0.0843048 17.4878 0.0843048 24.0046C0.0843048 30.5217 0.112509 31.3373 0.224958 33.8972C0.337407 36.4477 0.750207 38.2011 1.34102 39.7204C1.95051 41.3332 2.89736 42.777 4.11635 43.9774C5.31665 45.1964 6.77006 46.1436 8.36412 46.7435C9.89261 47.3343 11.6365 47.7468 14.1873 47.8593C16.7469 47.972 17.5629 47.9998 24.0799 47.9998C30.5967 47.9998 31.4124 47.972 33.9723 47.8593C36.5228 47.7468 38.2762 47.3343 39.7953 46.7435C43.0211 45.4963 45.5714 42.946 46.8186 39.7204C47.409 38.1919 47.8218 36.4477 47.9343 33.8972C48.0469 31.3373 48.0751 30.5217 48.0751 24.0046C48.0751 17.4878 48.0655 16.6721 47.953 14.1121ZM43.6305 33.7096C43.5272 36.054 43.1334 37.3198 42.8053 38.1636C41.9987 40.2547 40.339 41.9144 38.2479 42.721C37.4041 43.0491 36.129 43.4429 33.7939 43.5458C31.2622 43.6587 30.503 43.6865 24.0985 43.6865C17.6941 43.6865 16.9252 43.6587 14.4027 43.5458C12.0584 43.4429 10.7926 43.0491 9.94865 42.721C8.90805 42.3364 7.96084 41.727 7.19201 40.9298C6.39498 40.1516 5.7855 39.2139 5.40088 38.1732C5.0727 37.3294 4.67895 36.054 4.57603 33.7192C4.46321 31.1875 4.43537 30.4278 4.43537 24.0234C4.43537 17.6189 4.46321 16.8501 4.57603 14.3279C4.67895 11.9837 5.0727 10.7178 5.40088 9.87387C5.7855 8.8329 6.39498 7.88605 7.20154 7.11686C7.97952 6.31983 8.91721 5.71035 9.95818 5.32612C10.8021 4.99793 12.0775 4.60418 14.4122 4.50088C16.9439 4.38843 17.7036 4.36022 24.1077 4.36022C30.5217 4.36022 31.281 4.38843 33.8035 4.50088C36.1477 4.60418 37.4137 4.99793 38.2575 5.32612C39.2982 5.71035 40.2453 6.31983 41.0141 7.11686C41.8113 7.89521 42.4207 8.8329 42.8053 9.87387C43.1334 10.7178 43.5272 11.9928 43.6305 14.3279C43.743 16.8596 43.7712 17.6189 43.7712 24.0234C43.7712 30.4278 43.743 31.1779 43.6305 33.7096Z" fill="white"/>
<path d="M24.0891 11.6743C17.2817 11.6743 11.7585 17.1971 11.7585 24.0049C11.7585 30.8126 17.2817 36.3353 24.0891 36.3353C30.8968 36.3353 36.4195 30.8126 36.4195 24.0049C36.4195 17.1971 30.8968 11.6743 24.0891 11.6743ZM24.0891 32.0034C19.6727 32.0034 16.0905 28.4215 16.0905 24.0049C16.0905 19.5881 19.6727 16.0063 24.0891 16.0063C28.5057 16.0063 32.0876 19.5881 32.0876 24.0049C32.0876 28.4215 28.5057 32.0034 24.0891 32.0034Z" fill="white"/>
<path d="M39.7861 11.1867C39.7861 12.7764 38.4972 14.0653 36.907 14.0653C35.3175 14.0653 34.0284 12.7764 34.0284 11.1867C34.0284 9.59669 35.3175 8.30811 36.907 8.30811C38.4972 8.30811 39.7861 9.59669 39.7861 11.1867Z" fill="white"/>
</g>
<defs>
<clipPath id="clip0">
<rect width="48" height="48" fill="white"/>
</clipPath>
</defs>
</svg>
