<svg width="32" height="32" viewBox="0 0 32 32" fill="none" xmlns="http://www.w3.org/2000/svg">
<path d="M19.7617 5.37476L2.15488 22.9829C2.0663 23.0717 2.00234 23.1839 1.97188 23.3045L0.0203274 31.1376C-0.0380491 31.3734 0.0312413 31.6241 0.203325 31.7962C0.33353 31.9264 0.510944 31.9985 0.692418 31.9985C0.748003 31.9985 0.804857 31.9916 0.860187 31.9777L8.6933 30.0259C8.81538 29.9954 8.92629 29.9317 9.01487 29.8431L26.6232 12.2363L19.7617 5.37476Z" fill="black"/>
<path d="M30.9852 2.97393L29.0253 1.01401C27.7154 -0.295912 25.4323 -0.294643 24.1239 1.01401L21.7231 3.4148L28.5844 10.2761L30.9852 7.87527C31.6395 7.2212 31.9999 6.35063 31.9999 5.42473C31.9999 4.49883 31.6395 3.62826 30.9852 2.97393Z" fill="black"/>
</svg>
