<svg id="Capa_1" enable-background="new 0 0 512 512" height="512" viewBox="0 0 512 512" width="512" xmlns="http://www.w3.org/2000/svg"><g><g><ellipse cx="256" cy="268.007" fill="#f9f3f1" rx="189.613" ry="190.091"/></g><g><path d="m445.618 268.006c0 104.982-84.896 190.088-189.618 190.088-20.527 0-40.283-3.269-58.8-9.318 11.528 2.19 23.416 3.339 35.584 3.339 104.722 0 189.608-85.105 189.608-190.088 0-84.406-54.871-155.964-130.808-180.769 87.715 16.697 154.034 93.964 154.034 186.748z" fill="#efe2dd"/></g><g><path d="m377.133 71.014-19.874 29.817c-1.653 2.48-.943 5.822 1.561 7.438 52.112 33.605 86.725 92.011 87.151 158.529.672 104.871-84.731 191.02-189.604 191.218-105.089.199-190.343-84.932-190.343-189.975.001-104.921 85.056-189.975 189.976-189.975l.005-.013v22.19c0 2.842 3.165 4.54 5.533 2.968l67.177-44.59c2.124-1.409 2.124-4.528 0-5.937l-67.176-44.588c-2.368-1.572-5.533.126-5.533 2.968v20.53l-.006-.013c-130.593 0-236.46 105.866-236.46 236.459-.001 130.274 106.187 236.462 236.461 236.461 130.593 0 236.459-105.867 236.459-236.46 0-83.217-42.987-156.393-107.967-198.535-2.456-1.593-5.736-.928-7.36 1.508z" fill="#97da7b"/></g><g><path d="m492.46 268.036c0 130.598-105.862 236.46-236.46 236.46-3.269 0-6.519-.07-9.748-.2 126.079-5.109 226.712-108.932 226.712-236.26 0-79.297-39.033-149.475-98.933-192.367l3.099-4.659c1.63-2.43 4.909-3.099 7.359-1.5 64.988 42.133 107.971 115.311 107.971 198.526z" fill="#80d261"/></g><g><path d="m174.762 53.908c25.782-9.786 52.958-14.775 80.785-14.828.645.041 1.308-.004 1.967-.14 3.488-.716 5.991-3.786 5.991-7.345v-13.193l56.123 37.251-56.123 37.253v-14.853c0-3.522-2.454-6.563-5.893-7.318-.646-.142-1.294-.191-1.929-.168-108.742.173-197.156 88.693-197.156 197.474 0 52.818 20.588 102.455 57.972 139.768 37.293 37.223 86.816 57.705 139.499 57.705h.385c9.599-.018 19.25-.74 28.688-2.146 4.096-.61 6.922-4.425 6.312-8.522-.61-4.098-4.431-6.917-8.522-6.311-8.717 1.299-17.636 1.965-26.506 1.982-.119 0-.236 0-.355 0-48.678 0-94.446-18.928-128.905-53.323-34.545-34.479-53.569-80.347-53.569-129.153 0-98.106 77.828-178.379 174.983-182.326v14.528c0 4.082 2.235 7.818 5.833 9.747 3.594 1.93 7.943 1.725 11.345-.531l67.178-44.59c3.095-2.055 4.943-5.5 4.943-9.216 0-3.715-1.848-7.16-4.944-9.216l-67.178-44.588c-3.402-2.257-7.749-2.464-11.346-.532-3.598 1.929-5.833 5.665-5.833 9.747v13.13c-27.198.816-53.759 6.085-79.068 15.693-3.872 1.469-5.819 5.8-4.35 9.671 1.471 3.873 5.801 5.82 9.673 4.35z"/><path d="m388.573 63.214c-5.874-3.809-13.803-2.173-17.681 3.641l-19.871 29.815c-1.919 2.878-2.589 6.328-1.885 9.715.705 3.396 2.702 6.303 5.621 8.185 52.024 33.55 83.32 90.475 83.715 152.275.249 38.81-11.655 76.005-34.426 107.564-22.307 30.917-52.997 53.799-88.751 66.172-3.914 1.354-5.989 5.625-4.635 9.539 1.355 3.913 5.625 5.986 9.539 4.634 38.688-13.387 71.887-38.136 96.01-71.57 24.646-34.158 37.531-74.42 37.261-116.434-.424-66.153-33.555-127.138-88.752-163.588l17.467-26.205c64.4 42.598 102.778 113.868 102.778 191.085 0 61.158-23.816 118.655-67.061 161.899-43.245 43.246-100.742 67.062-161.899 67.062-61.003 0-118.458-23.859-161.781-67.182s-67.183-100.778-67.183-161.782c0-83.271 45.305-160.081 118.234-200.454 3.623-2.005 4.934-6.569 2.928-10.193-2.006-3.623-6.567-4.936-10.193-2.928-77.698 43.014-125.967 124.851-125.967 213.575 0 65.01 25.419 126.231 71.574 172.387 46.156 46.155 107.376 71.574 172.386 71.574 65.164 0 126.427-25.377 172.504-71.455 46.078-46.077 71.454-107.34 71.454-172.504 0-83.023-41.64-159.594-111.386-204.827z"/><path d="m334.428 151.052c-3.844-1.531-8.208.349-9.739 4.197l-87.491 219.974c-1.531 3.848.348 8.208 4.197 9.739.909.362 1.846.533 2.769.533 2.981 0 5.801-1.791 6.969-4.73l87.491-219.974c1.532-3.848-.347-8.209-4.196-9.739z"/><path d="m330.835 384.858c.982.432 2.007.636 3.014.636 2.884 0 5.634-1.674 6.869-4.483l49.472-112.541c1.019-2.319.799-4.996-.586-7.117s-3.747-3.4-6.279-3.4h-61.913c-4.142 0-7.499 3.357-7.499 7.499s3.357 7.499 7.499 7.499h50.426l-44.85 102.025c-1.667 3.791.056 8.216 3.847 9.882z"/><path d="m247.506 244.844c-.04 9.605-.086 18.997-.134 27.442-.023 4.141 3.315 7.517 7.457 7.541h.043c4.121 0 7.607-3.33 7.631-7.457v-27.526h6.728c4.142 0 7.499-3.357 7.499-7.499s-3.357-7.499-7.499-7.499h-6.672c.093-28.275.335-60.627 0-64.648-.571-6.856-4.753-12.401-10.322-14.125-2.617-.811-9.404-1.836-15.898 6.135-6.417 7.872-40.483 69.513-44.347 76.515-1.281 2.323-1.24 5.15.109 7.435 1.348 2.284 3.804 3.686 6.457 3.686zm-.059-77.477c.218 6.016.209 33.5.115 62.48h-36.275c13.693-24.608 31.524-56.027 36.16-62.48z"/><path d="m167.065 211.302c-17.889 25.56-28.569 39.545-34.308 47.058-6.799 8.903-8.626 11.295-7.246 15.781.772 2.51 2.692 4.443 5.268 5.301.764.255 1.565.385 2.371.385h57.35c4.142 0 7.499-3.357 7.499-7.499s-3.357-7.499-7.499-7.499h-43.813c6.158-8.085 16.507-21.84 32.665-44.928 10.398-14.857 19.476-33.157 9.528-50.474-1.613-2.808-3.559-5.432-5.805-7.765-6.802-7.066-16.331-11.141-26.142-11.141-17.306 0-32.284 12.309-35.615 29.268-.798 4.064 1.849 8.006 5.913 8.803 4.07.797 8.006-1.849 8.803-5.913 1.953-9.944 10.742-17.161 20.899-17.161 12.081 0 23.902 11.763 20.854 24.308-1.523 6.26-5.128 13.483-10.722 21.476z"/></g></g></svg>