<svg width="48" height="48" viewBox="0 0 48 48" fill="none" xmlns="http://www.w3.org/2000/svg">
<path d="M0.945984 39.19C5.38998 42.0101 10.562 43.5 15.902 43.5C23.722 43.5 30.888 40.496 36.082 35.042C41.0521 29.8221 43.786 22.808 43.65 15.69C45.5339 14.078 47.75 11 47.75 8.00003C47.75 6.85003 46.502 6.12003 45.49 6.70603C43.7199 7.74604 42.106 8.01802 40.4459 7.55202C37.056 4.24803 32.01 3.55203 27.758 5.84403C24.042 7.84403 21.9759 11.504 22.162 15.504C15.884 14.738 10.084 11.59 6.03998 6.69802C5.37598 5.90003 4.11598 5.99404 3.58798 6.89803C1.63999 10.234 1.65998 14.1 3.35399 17.222C2.54798 17.364 2.04999 18.042 2.04999 18.776C2.04999 21.914 3.46199 24.798 5.73598 26.766C5.31199 27.174 5.17198 27.78 5.35198 28.3201C6.35198 31.3241 8.61598 33.6721 11.446 34.8481C8.36798 36.318 4.96399 36.808 1.93398 36.4361C0.365985 36.224 -0.408015 38.3321 0.945984 39.19ZM16.312 35.3621C17.434 34.5 16.838 32.704 15.43 32.6741C12.95 32.622 10.692 31.4 9.28599 29.478C9.96398 29.4341 10.666 29.33 11.334 29.1501C12.856 28.7381 12.784 26.542 11.238 26.2321C8.43199 25.668 6.22998 23.624 5.40398 20.992C6.15798 21.1781 6.92598 21.2819 7.69198 21.296C9.20999 21.304 9.78398 19.3581 8.54598 18.544C5.75599 16.706 4.56599 13.46 5.35398 10.408C10.226 15.344 16.836 18.318 23.828 18.654C24.83 18.716 25.5821 17.774 25.362 16.82C24.412 12.702 26.712 9.81603 29.1821 8.48603C31.626 7.16602 35.5499 6.75403 38.558 9.91003C39.452 10.852 42.4681 10.888 44.002 10.53C43.314 11.826 42.2559 13.056 41.266 13.748C40.844 14.044 40.602 14.536 40.628 15.05C40.9499 21.6201 38.5019 28.1521 33.912 32.9699C29.288 37.8241 22.8941 40.4981 15.904 40.4981C13.124 40.4981 10.398 40.0461 7.82199 39.174C10.902 38.5781 13.828 37.274 16.312 35.3621Z" fill="white"/>
</svg>
