<svg width="38" height="38" viewBox="0 0 38 38" fill="none" xmlns="http://www.w3.org/2000/svg">
<g clip-path="url(#clip0_34:46)">
<path d="M37.8593 18.5503C37.56 18.1148 30.3684 7.91644 18.9999 7.91644C9.24481 7.91644 0.552178 18.0563 0.186422 18.4885C-0.0621406 18.783 -0.0621406 19.2153 0.186422 19.5114C0.552178 19.9436 9.24481 30.0835 18.9999 30.0835C28.755 30.0835 37.4476 19.9436 37.8133 19.5114C38.043 19.2391 38.0635 18.8448 37.8593 18.5503ZM18.9999 28.5001C11.1797 28.5001 3.74423 21.0425 1.85533 19C3.74111 16.9559 11.1687 9.49985 18.9999 9.49985C28.1501 9.49985 34.6087 16.9464 36.1857 18.9572C34.3648 20.9348 26.8866 28.5001 18.9999 28.5001Z" fill="black"/>
<path d="M18.9999 12.6665C15.507 12.6665 12.6665 15.5071 12.6665 18.9999C12.6665 22.4928 15.507 25.3333 18.9999 25.3333C22.4928 25.3333 25.3333 22.4928 25.3333 18.9999C25.3333 15.5071 22.4928 12.6665 18.9999 12.6665ZM18.9999 23.7501C16.3811 23.7501 14.2498 21.6188 14.2498 19C14.2498 16.3812 16.3811 14.2499 18.9999 14.2499C21.6188 14.2499 23.75 16.3812 23.75 19C23.75 21.6188 21.6188 23.7501 18.9999 23.7501Z" fill="black"/>
</g>
<defs>
<clipPath id="clip0_34:46">
<rect width="38" height="38" fill="white"/>
</clipPath>
</defs>
</svg>
