<svg width="48" height="48" viewBox="0 0 48 48" fill="none" xmlns="http://www.w3.org/2000/svg">
<g clip-path="url(#clip0)">
<path d="M40.0001 26.5858V25.3518L46.44 17.2998C47.4486 16.0373 47.9985 14.4697 48 12.8538C47.9988 11.278 46.7217 10.0009 45.1459 9.99977H38.13C37.0466 9.99612 36.0674 10.6448 35.6481 11.6438C34.2912 15.3757 32.506 18.9375 30.3279 22.2577C29.6575 22.7838 28.734 22.8471 27.998 22.4178V12.1878C27.9915 10.9829 27.0169 10.0075 25.8121 9.99977H17C16.4477 9.99873 15.9992 10.4457 15.9982 10.998C15.9977 11.2643 16.1034 11.5197 16.292 11.7078L16.84 12.2558C17.5842 12.9956 18.0019 14.0023 17.9999 15.0518V22.6519C17.9062 22.7475 17.7854 22.8124 17.6539 22.8377C17.2828 22.7805 16.9459 22.5883 16.7079 22.2978C14.1341 18.5641 11.8553 14.6355 9.89186 10.5478C9.7215 10.2116 9.37668 9.99987 8.99983 9.99987H2.59997C1.1641 9.99987 3.62144e-06 11.1639 3.62144e-06 12.5998V13.1098C-0.00168388 15.2192 0.58641 17.2871 1.698 19.0798C7.06201 27.7097 14.418 37.9998 19 37.9998H25.542C26.8986 37.9977 27.9978 36.8985 28.0001 35.5418V33.8297C27.9996 32.8202 28.8177 32.0013 29.8272 32.0009C30.313 32.0007 30.7789 32.1939 31.122 32.5378L35.274 36.6898C36.1131 37.5315 37.2536 38.003 38.442 37.9998H45.5779C46.9135 37.9979 47.9944 36.9136 47.9925 35.5783C47.9916 34.9391 47.7375 34.3262 47.2859 33.8737L40.0001 26.5858Z" fill="white"/>
</g>
<defs>
<clipPath id="clip0">
<rect width="48" height="48" fill="white"/>
</clipPath>
</defs>
</svg>
